<?xml version="1.0" encoding="UTF-8"?>
<svg width="340px" height="58px" viewBox="0 0 340 58" version="1.1" xmlns="http://www.w3.org/2000/svg" xmlns:xlink="http://www.w3.org/1999/xlink">
    <!-- Generator: Sketch 46.1 (44463) - http://www.bohemiancoding.com/sketch -->
    <title>DEAREST</title>
    <desc>Created with Sketch.</desc>
    <defs></defs>
    <g id="Page-1" stroke="none" stroke-width="1" fill="none" fill-rule="evenodd">
        <g id="Desktop-HD-Copy" transform="translate(-456.000000, -2182.000000)" fill="#000000">
            <path d="M462.504,2217.336 L462.504,2204.664 C462.504,2193.432 462.504,2191.416 462.36,2189.112 C462.216,2186.664 461.64,2185.512 459.264,2185.008 C458.688,2184.864 457.464,2184.792 456.816,2184.792 C456.528,2184.792 456.24,2184.648 456.24,2184.36 C456.24,2183.928 456.6,2183.784 457.392,2183.784 C460.632,2183.784 465.168,2184 465.528,2184 C466.392,2184 470.928,2183.784 475.248,2183.784 C482.376,2183.784 495.552,2183.136 504.12,2191.992 C507.72,2195.736 511.104,2201.712 511.104,2210.28 C511.104,2219.352 507.36,2226.336 503.328,2230.584 C500.232,2233.824 493.752,2238.864 481.512,2238.864 C478.416,2238.864 474.6,2238.648 471.504,2238.432 C468.336,2238.216 465.888,2238 465.528,2238 C465.384,2238 464.16,2238 462.648,2238.072 C461.208,2238.072 459.552,2238.216 458.472,2238.216 C457.68,2238.216 457.32,2238.072 457.32,2237.64 C457.32,2237.424 457.464,2237.208 457.896,2237.208 C458.544,2237.208 459.408,2237.064 460.056,2236.92 C461.496,2236.632 461.856,2235.048 462.144,2232.96 C462.504,2229.936 462.504,2224.248 462.504,2217.336 Z M468.552,2203.512 L468.552,2212.44 C468.552,2220.072 468.624,2226.696 468.696,2228.064 C468.768,2229.864 468.912,2232.744 469.488,2233.536 C470.424,2234.904 473.232,2236.416 481.728,2236.416 C488.424,2236.416 494.616,2233.968 498.864,2229.72 C502.608,2226.048 504.624,2219.136 504.624,2212.512 C504.624,2203.368 500.664,2197.464 497.712,2194.368 C490.944,2187.24 482.736,2186.232 474.168,2186.232 C472.728,2186.232 470.064,2186.448 469.488,2186.736 C468.84,2187.024 468.624,2187.384 468.624,2188.176 C468.552,2190.624 468.552,2197.968 468.552,2203.512 Z M527.808,2217.336 C527.808,2224.248 527.808,2229.936 527.448,2232.96 C527.16,2235.048 526.8,2236.632 525.36,2236.92 C524.712,2237.064 523.848,2237.208 523.2,2237.208 C522.768,2237.208 522.624,2237.424 522.624,2237.64 C522.624,2238.072 522.984,2238.216 523.776,2238.216 C524.856,2238.216 526.512,2238.072 527.952,2238.072 C529.464,2238 530.688,2238 530.832,2238 C531.912,2238 533.64,2238.072 536.448,2238.216 C539.256,2238.288 543.216,2238.432 548.616,2238.432 C551.424,2238.432 552,2238.432 552.504,2236.56 C552.864,2235.048 553.44,2230.152 553.44,2229.576 C553.44,2229.072 553.44,2228.496 553.008,2228.496 C552.648,2228.496 552.504,2228.784 552.36,2229.576 C551.856,2232.528 550.992,2233.968 549.12,2234.76 C547.248,2235.552 544.08,2235.552 542.208,2235.552 C535.152,2235.552 534.072,2234.616 533.856,2229.648 C533.784,2228.136 533.856,2219.784 533.856,2217.336 L533.856,2211 C533.856,2210.712 534,2210.496 534.36,2210.496 C535.584,2210.496 542.712,2210.64 544.656,2210.856 C547.464,2211.144 548.112,2212.368 548.4,2213.376 C548.688,2214.312 548.688,2215.032 548.688,2215.752 C548.688,2216.112 548.832,2216.4 549.192,2216.4 C549.696,2216.4 549.696,2215.608 549.696,2215.032 C549.696,2214.528 549.84,2211.864 549.984,2210.424 C550.2,2208.048 550.56,2206.824 550.56,2206.392 C550.56,2205.96 550.416,2205.816 550.2,2205.816 C549.912,2205.816 549.624,2206.176 549.12,2206.752 C548.472,2207.472 547.464,2207.616 545.736,2207.76 C544.08,2207.904 535.224,2207.904 534.288,2207.904 C533.928,2207.904 533.856,2207.688 533.856,2207.184 L533.856,2187.312 C533.856,2186.808 534,2186.592 534.288,2186.592 C535.08,2186.592 542.928,2186.664 544.152,2186.808 C548.04,2187.24 548.76,2188.104 549.264,2189.256 C549.624,2190.12 549.696,2191.344 549.696,2191.848 C549.696,2192.424 549.84,2192.784 550.272,2192.784 C550.56,2192.784 550.704,2192.352 550.776,2191.992 C550.92,2191.128 551.064,2187.96 551.136,2187.24 C551.352,2185.224 551.712,2184.36 551.712,2183.856 C551.712,2183.496 551.64,2183.208 551.424,2183.208 C551.064,2183.208 550.776,2183.496 550.416,2183.568 C549.84,2183.712 548.688,2183.856 547.32,2183.928 C545.664,2184 531.336,2184 530.832,2184 L527.88,2183.856 C526.296,2183.784 524.352,2183.784 522.696,2183.784 C521.904,2183.784 521.544,2183.928 521.544,2184.36 C521.544,2184.648 521.832,2184.792 522.12,2184.792 C522.768,2184.792 523.992,2184.864 524.568,2185.008 C526.944,2185.512 527.52,2186.664 527.664,2189.112 C527.808,2191.416 527.808,2193.432 527.808,2204.664 L527.808,2217.336 Z M565.752,2230.296 L582.096,2185.584 C582.96,2183.208 583.248,2182.776 583.68,2182.776 C584.112,2182.776 584.4,2183.136 585.264,2185.368 C586.344,2188.104 597.648,2217.84 602.04,2228.784 C604.632,2235.192 606.72,2236.344 608.232,2236.776 C609.312,2237.136 610.392,2237.208 611.112,2237.208 C611.544,2237.208 611.832,2237.28 611.832,2237.64 C611.832,2238.072 611.184,2238.216 610.392,2238.216 C609.312,2238.216 604.056,2238.216 599.088,2238.072 C597.72,2238 596.928,2238 596.928,2237.568 C596.928,2237.28 597.144,2237.136 597.432,2237.064 C597.864,2236.92 598.296,2236.272 597.864,2235.12 L591.168,2217.408 C591.024,2217.12 590.88,2216.976 590.52,2216.976 L575.04,2216.976 C574.68,2216.976 574.464,2217.192 574.32,2217.552 L570,2230.296 C569.352,2232.096 568.992,2233.824 568.992,2235.12 C568.992,2236.56 570.504,2237.208 571.728,2237.208 L572.448,2237.208 C572.952,2237.208 573.168,2237.352 573.168,2237.64 C573.168,2238.072 572.736,2238.216 572.088,2238.216 C570.36,2238.216 567.264,2238 566.472,2238 C565.68,2238 561.72,2238.216 558.336,2238.216 C557.4,2238.216 556.968,2238.072 556.968,2237.64 C556.968,2237.352 557.256,2237.208 557.616,2237.208 C558.12,2237.208 559.128,2237.136 559.704,2237.064 C563.016,2236.632 564.456,2233.896 565.752,2230.296 Z M575.832,2214.384 L589.584,2214.384 C589.944,2214.384 589.944,2214.168 589.872,2213.88 L583.032,2194.44 C582.672,2193.36 582.312,2193.36 581.952,2194.44 L575.616,2213.88 C575.472,2214.24 575.616,2214.384 575.832,2214.384 Z M622.128,2217.336 L622.128,2204.664 C622.128,2193.432 622.128,2191.416 621.984,2189.112 C621.84,2186.664 621.264,2185.512 618.888,2185.008 C618.312,2184.864 617.088,2184.792 616.44,2184.792 C616.152,2184.792 615.864,2184.648 615.864,2184.36 C615.864,2183.928 616.224,2183.784 617.016,2183.784 C620.256,2183.784 624.792,2184 625.152,2184 C625.944,2184 631.416,2183.784 633.648,2183.784 C638.184,2183.784 643.008,2184.216 646.824,2186.952 C648.624,2188.248 651.792,2191.776 651.792,2196.744 C651.792,2202.072 649.56,2207.4 643.08,2213.376 C648.984,2220.936 653.88,2227.344 658.056,2231.808 C661.944,2235.912 665.04,2236.704 666.84,2236.992 C668.208,2237.208 669.216,2237.208 669.648,2237.208 C670.008,2237.208 670.296,2237.424 670.296,2237.64 C670.296,2238.072 669.864,2238.216 668.568,2238.216 L663.456,2238.216 C659.424,2238.216 657.624,2237.856 655.752,2236.848 C652.656,2235.192 650.136,2231.664 646.032,2226.264 C643.008,2222.304 639.624,2217.48 638.184,2215.608 C637.896,2215.32 637.68,2215.176 637.248,2215.176 L628.392,2215.032 C628.032,2215.032 627.888,2215.248 627.888,2215.608 L627.888,2217.336 C627.888,2224.248 627.888,2229.936 628.248,2232.96 C628.464,2235.048 628.896,2236.632 631.056,2236.92 C632.064,2237.064 633.648,2237.208 634.296,2237.208 C634.728,2237.208 634.872,2237.424 634.872,2237.64 C634.872,2238 634.512,2238.216 633.72,2238.216 C629.76,2238.216 625.224,2238 624.864,2238 C624.792,2238 620.256,2238.216 618.096,2238.216 C617.304,2238.216 616.944,2238.072 616.944,2237.64 C616.944,2237.424 617.088,2237.208 617.52,2237.208 C618.168,2237.208 619.032,2237.064 619.68,2236.92 C621.12,2236.632 621.48,2235.048 621.768,2232.96 C622.128,2229.936 622.128,2224.248 622.128,2217.336 Z M627.888,2187.384 L627.888,2210.928 C627.888,2211.288 628.032,2211.576 628.392,2211.792 C629.472,2212.44 632.784,2212.944 635.952,2212.944 C637.68,2212.944 639.696,2212.728 641.352,2211.576 C643.872,2209.848 645.744,2205.96 645.744,2200.488 C645.744,2191.488 640.992,2186.088 633.288,2186.088 C631.128,2186.088 629.184,2186.304 628.464,2186.52 C628.104,2186.664 627.888,2186.952 627.888,2187.384 Z M676.416,2217.336 L676.416,2204.664 C676.416,2193.432 676.416,2191.416 676.272,2189.112 C676.128,2186.664 675.552,2185.512 673.176,2185.008 C672.6,2184.864 671.376,2184.792 670.728,2184.792 C670.44,2184.792 670.152,2184.648 670.152,2184.36 C670.152,2183.928 670.512,2183.784 671.304,2183.784 C672.96,2183.784 674.904,2183.784 676.488,2183.856 L679.44,2184 C679.944,2184 694.272,2184 695.928,2183.928 C697.296,2183.856 698.448,2183.712 699.024,2183.568 C699.384,2183.496 699.672,2183.208 700.032,2183.208 C700.248,2183.208 700.32,2183.496 700.32,2183.856 C700.32,2184.36 699.96,2185.224 699.744,2187.24 C699.672,2187.96 699.528,2191.128 699.384,2191.992 C699.312,2192.352 699.168,2192.784 698.88,2192.784 C698.448,2192.784 698.304,2192.424 698.304,2191.848 C698.304,2191.344 698.232,2190.12 697.872,2189.256 C697.368,2188.104 696.648,2187.24 692.76,2186.808 C691.536,2186.664 683.688,2186.592 682.896,2186.592 C682.608,2186.592 682.464,2186.808 682.464,2187.312 L682.464,2207.184 C682.464,2207.688 682.536,2207.904 682.896,2207.904 C683.832,2207.904 692.688,2207.904 694.344,2207.76 C696.072,2207.616 697.08,2207.472 697.728,2206.752 C698.232,2206.176 698.52,2205.816 698.808,2205.816 C699.024,2205.816 699.168,2205.96 699.168,2206.392 C699.168,2206.824 698.808,2208.048 698.592,2210.424 C698.448,2211.864 698.304,2214.528 698.304,2215.032 C698.304,2215.608 698.304,2216.4 697.8,2216.4 C697.44,2216.4 697.296,2216.112 697.296,2215.752 C697.296,2215.032 697.296,2214.312 697.008,2213.376 C696.72,2212.368 696.072,2211.144 693.264,2210.856 C691.32,2210.64 684.192,2210.496 682.968,2210.496 C682.608,2210.496 682.464,2210.712 682.464,2211 L682.464,2217.336 C682.464,2219.784 682.392,2228.136 682.464,2229.648 C682.68,2234.616 683.76,2235.552 690.816,2235.552 C692.688,2235.552 695.856,2235.552 697.728,2234.76 C699.6,2233.968 700.464,2232.528 700.968,2229.576 C701.112,2228.784 701.256,2228.496 701.616,2228.496 C702.048,2228.496 702.048,2229.072 702.048,2229.576 C702.048,2230.152 701.472,2235.048 701.112,2236.56 C700.608,2238.432 700.032,2238.432 697.224,2238.432 C691.824,2238.432 687.864,2238.288 685.056,2238.216 C682.248,2238.072 680.52,2238 679.44,2238 C679.296,2238 678.072,2238 676.56,2238.072 C675.12,2238.072 673.464,2238.216 672.384,2238.216 C671.592,2238.216 671.232,2238.072 671.232,2237.64 C671.232,2237.424 671.376,2237.208 671.808,2237.208 C672.456,2237.208 673.32,2237.064 673.968,2236.92 C675.408,2236.632 675.768,2235.048 676.056,2232.96 C676.416,2229.936 676.416,2224.248 676.416,2217.336 Z M725.376,2239.224 C729.264,2239.224 733.152,2238.36 736.248,2236.2 C741.216,2232.672 742.368,2227.2 742.368,2224.248 C742.368,2218.488 740.352,2214.024 731.856,2207.328 L729.84,2205.744 C722.928,2200.344 721.056,2197.752 721.056,2193.648 C721.056,2188.392 724.944,2185.296 729.912,2185.296 C736.536,2185.296 738.48,2188.32 738.912,2189.112 C739.344,2189.904 739.776,2191.848 739.848,2192.712 C739.92,2193.288 739.992,2193.648 740.424,2193.648 C740.784,2193.648 740.928,2193.144 740.928,2191.992 C740.928,2187.096 741.216,2184.72 741.216,2184.36 C741.216,2184 741.072,2183.856 740.496,2183.856 C739.92,2183.856 739.344,2183.784 737.976,2183.496 C736.176,2183.064 734.088,2182.776 731.28,2182.776 C722.136,2182.776 716.376,2188.032 716.376,2195.736 C716.376,2200.632 718.104,2205.096 725.736,2211.36 L728.976,2214.024 C735.168,2219.136 737.256,2222.016 737.256,2226.984 C737.256,2231.592 733.872,2236.56 726.96,2236.56 C722.136,2236.56 717.384,2234.544 716.304,2229.216 C716.088,2228.208 716.088,2227.2 716.088,2226.552 C716.088,2225.976 716.016,2225.76 715.584,2225.76 C715.224,2225.76 715.08,2226.12 715.008,2226.912 C714.936,2228.064 714.648,2230.944 714.648,2234.544 C714.648,2236.488 714.72,2236.776 715.728,2237.28 C718.68,2238.72 721.992,2239.224 725.376,2239.224 Z M776.712,2186.88 L785.784,2187.024 C792.696,2187.168 794.424,2188.824 794.64,2190.984 L794.712,2191.776 C794.784,2192.784 794.928,2193 795.288,2193 C795.576,2193 795.792,2192.712 795.792,2192.064 C795.792,2191.272 796.008,2186.304 796.008,2184.144 C796.008,2183.712 796.008,2183.28 795.648,2183.28 C795.36,2183.28 794.712,2183.496 793.632,2183.64 C792.48,2183.856 790.824,2184 788.52,2184 L761.52,2184 C760.656,2184 757.92,2183.856 755.832,2183.64 C753.888,2183.496 753.168,2182.776 752.664,2182.776 C752.376,2182.776 752.088,2183.712 751.944,2184.144 C751.8,2184.72 750.36,2190.912 750.36,2191.632 C750.36,2192.064 750.504,2192.28 750.72,2192.28 C751.008,2192.28 751.224,2192.136 751.44,2191.56 C751.656,2191.056 751.872,2190.552 752.664,2189.328 C753.816,2187.6 755.544,2187.096 760.008,2187.024 L770.664,2186.88 L770.664,2217.336 C770.664,2224.248 770.664,2229.936 770.304,2232.96 C770.016,2235.048 769.656,2236.632 768.216,2236.92 C767.568,2237.064 766.704,2237.208 766.056,2237.208 C765.624,2237.208 765.48,2237.424 765.48,2237.64 C765.48,2238.072 765.84,2238.216 766.632,2238.216 C768.792,2238.216 773.328,2238 773.688,2238 C774.048,2238 778.584,2238.216 782.544,2238.216 C783.336,2238.216 783.696,2238 783.696,2237.64 C783.696,2237.424 783.552,2237.208 783.12,2237.208 C782.472,2237.208 780.888,2237.064 779.88,2236.92 C777.72,2236.632 777.288,2235.048 777.072,2232.96 C776.712,2229.936 776.712,2224.248 776.712,2217.336 L776.712,2186.88 Z" id="DEAREST"></path>
        </g>
    </g>
</svg>