<?xml version="1.0" encoding="UTF-8"?>
<svg width="346px" height="55px" viewBox="0 0 346 55" version="1.1" xmlns="http://www.w3.org/2000/svg" xmlns:xlink="http://www.w3.org/1999/xlink">
    <!-- Generator: Sketch 46.1 (44463) - http://www.bohemiancoding.com/sketch -->
    <title>FOREVER</title>
    <desc>Created with Sketch.</desc>
    <defs></defs>
    <g id="Page-1" stroke="none" stroke-width="1" fill="none" fill-rule="evenodd">
        <g id="Desktop-HD-Copy" transform="translate(-486.000000, -2001.000000)" fill="#000000">
            <path d="M501.480849,2028.78877 C501.480849,2028.31163 501.617174,2028.17531 501.957986,2028.17531 C503.116745,2028.17531 510.341953,2028.17531 512.046011,2028.3798 C514.159043,2028.65245 515.181478,2029.87937 515.52229,2030.83364 C515.794939,2031.65159 515.931264,2032.46954 515.931264,2032.94667 C515.931264,2033.42381 516.067589,2033.90095 516.476563,2033.90095 C517.158186,2033.90095 517.158186,2033.21932 517.158186,2032.60586 C517.158186,2032.12872 517.294511,2028.99326 517.430835,2027.63001 C517.635322,2025.51698 517.976134,2023.81292 517.976134,2023.40395 C517.976134,2022.99497 517.839809,2022.79049 517.56716,2022.79049 C517.158186,2022.79049 517.021861,2023.06313 516.68105,2023.47211 C515.999426,2024.35822 515.045154,2024.63087 513.750069,2024.69903 C512.795797,2024.76719 511.841524,2024.76719 510.682764,2024.76719 L501.957986,2024.83536 C501.549012,2024.83536 501.480849,2024.63087 501.480849,2024.22189 L501.480849,2007.18131 C501.480849,2006.43153 501.685336,2006.22704 502.09431,2006.22704 L512.59131,2006.43153 C515.181478,2006.49969 516.612887,2007.52212 517.090024,2008.4764 C517.498998,2009.43067 517.498998,2010.52127 517.498998,2011.06656 C517.56716,2011.81635 517.703485,2012.15716 518.180621,2012.15716 C518.657757,2012.15716 518.794082,2011.74819 518.862244,2011.20289 C518.998569,2010.38494 519.134894,2006.36336 519.203056,2005.68174 C519.407543,2003.90952 519.748355,2003.09157 519.748355,2002.61443 C519.748355,2002.27362 519.543868,2002.00097 519.271218,2002.00097 C518.930407,2002.00097 518.589595,2002.27362 518.180621,2002.40995 C517.498998,2002.61443 516.68105,2002.61443 515.385965,2002.6826 C513.818232,2002.75076 499.981278,2002.75076 497.39111,2002.75076 C496.436837,2002.75076 494.869103,2002.6826 493.096883,2002.61443 C491.324662,2002.61443 489.347954,2002.54627 487.575734,2002.54627 C486.553299,2002.54627 486.008,2002.6826 486.008,2003.2279 C486.008,2003.63687 486.485136,2003.77319 487.16676,2003.77319 C488.121032,2003.77319 489.279792,2003.84136 489.825091,2003.97768 C492.074448,2004.45482 492.619746,2005.54542 492.756071,2007.86293 C492.892396,2010.04413 492.892396,2011.95267 492.892396,2022.31335 L492.892396,2034.30992 C492.892396,2040.8535 492.892396,2045.96568 492.551584,2048.8285 C492.278935,2050.8052 491.938123,2052.30478 490.574876,2052.57742 C489.961415,2052.71375 489.143467,2052.85007 488.121032,2052.85007 C487.371247,2052.85007 487.098597,2053.05456 487.098597,2053.39537 C487.098597,2053.94067 487.575734,2054.077 488.530006,2054.077 C491.120175,2054.077 495.414402,2053.87251 497.186623,2053.87251 C498.958843,2053.87251 503.25307,2054.077 507.547297,2054.077 C508.569732,2054.077 509.046868,2053.87251 509.046868,2053.39537 C509.046868,2053.05456 508.774219,2052.85007 507.888109,2052.85007 C506.933836,2052.85007 505.434265,2052.71375 504.479992,2052.57742 C502.435122,2052.30478 502.026148,2050.8052 501.821661,2048.8285 C501.480849,2045.96568 501.480849,2040.8535 501.480849,2034.30992 L501.480849,2028.78877 Z M555.329092,2055.03127 C535.766503,2055.03127 527.859672,2040.37637 527.859672,2028.31163 C527.859672,2016.65588 535.562016,2001.592 556.010716,2001.592 C572.983136,2001.592 583.548298,2011.47554 583.548298,2027.08471 C583.548298,2042.69389 572.642325,2055.03127 555.329092,2055.03127 Z M558.19191,2051.62315 C562.963273,2051.62315 574.005571,2049.30563 574.005571,2029.60672 C574.005571,2014.33836 565.21263,2004.86379 554.034008,2004.86379 C546.19534,2004.86379 537.266074,2009.22618 537.266074,2026.1986 C537.266074,2040.37637 545.104742,2051.62315 558.19191,2051.62315 Z M597.794225,2034.30992 L597.794225,2022.31335 C597.794225,2011.95267 597.794225,2010.04413 597.657901,2007.86293 C597.521576,2005.54542 596.976277,2004.45482 594.72692,2003.97768 C594.181622,2003.84136 593.022862,2003.77319 592.068589,2003.77319 C591.318804,2003.77319 590.90983,2003.63687 590.90983,2003.15973 C590.90983,2002.6826 591.386966,2002.54627 592.409401,2002.54627 C596.022005,2002.54627 600.316232,2002.75076 601.747641,2002.75076 C604.06516,2002.75076 609.245497,2002.54627 611.35853,2002.54627 C615.652757,2002.54627 620.219633,2002.95525 623.900399,2005.47725 C625.808944,2006.77234 628.535437,2010.24862 628.535437,2014.81549 C628.535437,2019.85951 626.422405,2024.49454 619.538009,2030.08386 C625.604457,2037.71804 630.307658,2043.78448 634.329236,2048.01055 C638.146326,2051.96396 640.940982,2052.4411 641.963417,2052.64559 C642.713203,2052.78191 643.326664,2052.85007 643.871962,2052.85007 C644.417261,2052.85007 644.68991,2053.05456 644.68991,2053.39537 C644.68991,2053.94067 644.212774,2054.077 643.394826,2054.077 L636.919404,2054.077 C633.102314,2054.077 631.398255,2053.73618 629.626035,2052.78191 C626.695054,2051.21418 624.104886,2048.01055 620.287795,2042.76205 C617.561302,2039.01312 614.425835,2034.37808 613.539724,2033.35565 C613.198913,2032.94667 612.789939,2032.87851 612.312802,2032.87851 L606.382679,2032.74219 C606.041868,2032.74219 605.837381,2032.87851 605.837381,2033.28748 L605.837381,2034.24176 C605.837381,2040.58085 605.837381,2045.96568 606.178192,2048.8285 C606.382679,2050.8052 606.791653,2052.30478 608.836523,2052.57742 C609.858958,2052.71375 611.35853,2052.85007 612.176478,2052.85007 C612.721776,2052.85007 612.994426,2053.05456 612.994426,2053.39537 C612.994426,2053.87251 612.517289,2054.077 611.631179,2054.077 C607.677764,2054.077 602.633751,2053.87251 601.611316,2053.87251 C600.316232,2053.87251 596.022005,2054.077 593.295511,2054.077 C592.409401,2054.077 591.932265,2053.87251 591.932265,2053.39537 C591.932265,2053.05456 592.204914,2052.85007 593.022862,2052.85007 C594.045297,2052.85007 594.863245,2052.71375 595.476706,2052.57742 C596.839953,2052.30478 597.180764,2050.8052 597.453414,2048.8285 C597.794225,2045.96568 597.794225,2040.58085 597.794225,2034.30992 Z M605.837381,2006.97682 L605.837381,2027.69817 C605.837381,2028.44796 605.973705,2028.72061 606.450842,2028.9251 C607.882251,2029.40223 609.927121,2029.60672 611.631179,2029.60672 C614.357672,2029.60672 615.243783,2029.33407 616.470704,2028.44796 C618.515574,2026.94839 620.492282,2023.81292 620.492282,2018.22361 C620.492282,2008.54456 614.085023,2005.7499 610.063445,2005.7499 C608.359387,2005.7499 607.132465,2005.81806 606.450842,2006.02255 C605.973705,2006.15888 605.837381,2006.43153 605.837381,2006.97682 Z M649.256786,2034.30992 L649.256786,2022.31335 C649.256786,2011.95267 649.256786,2010.04413 649.120462,2007.86293 C648.984137,2005.54542 648.438838,2004.45482 646.189481,2003.97768 C645.644183,2003.84136 644.485423,2003.77319 643.531151,2003.77319 C642.781365,2003.77319 642.372391,2003.63687 642.372391,2003.15973 C642.372391,2002.6826 642.849527,2002.54627 643.871962,2002.54627 C645.712345,2002.54627 647.689053,2002.61443 649.393111,2002.61443 C651.165332,2002.6826 652.733065,2002.75076 653.687338,2002.75076 C655.868533,2002.75076 669.432837,2002.75076 670.727921,2002.6826 C672.023006,2002.54627 673.113603,2002.40995 673.658901,2002.27362 C673.999713,2002.20546 674.408687,2002.00097 674.749499,2002.00097 C675.09031,2002.00097 675.158473,2002.27362 675.158473,2002.61443 C675.158473,2003.09157 674.817661,2003.90952 674.613174,2007.04499 C674.545012,2007.72661 674.408687,2010.72575 674.272362,2011.5437 C674.2042,2011.88451 674.067875,2012.29349 673.590739,2012.29349 C673.113603,2012.29349 672.977278,2011.95267 672.977278,2011.33921 C672.977278,2010.86208 672.909116,2009.70332 672.568304,2008.88537 C672.091168,2007.65845 671.409545,2006.8405 668.001428,2006.43153 C666.842668,2006.2952 659.685623,2006.15888 658.322377,2006.15888 C657.981565,2006.15888 657.84524,2006.36336 657.84524,2006.8405 L657.84524,2024.08557 C657.84524,2024.56271 657.913403,2024.83536 658.322377,2024.83536 C659.821948,2024.83536 667.660616,2024.83536 669.22835,2024.69903 C670.864246,2024.56271 671.886681,2024.35822 672.500142,2023.6766 C672.977278,2023.1313 673.249928,2022.79049 673.590739,2022.79049 C673.863388,2022.79049 674.067875,2022.92681 674.067875,2023.33578 C674.067875,2023.74476 673.795226,2024.83536 673.522577,2028.31163 C673.454414,2029.67488 673.249928,2032.40137 673.249928,2032.87851 C673.249928,2033.42381 673.249928,2034.17359 672.636467,2034.17359 C672.15933,2034.17359 672.023006,2033.90095 672.023006,2033.56013 C671.954843,2032.87851 671.954843,2031.9924 671.750356,2031.10629 C671.409545,2029.74304 670.455272,2028.72061 667.933266,2028.44796 C666.638181,2028.31163 659.89011,2028.24347 658.254214,2028.24347 C657.913403,2028.24347 657.84524,2028.51612 657.84524,2028.9251 L657.84524,2034.30992 C657.84524,2036.62744 657.777078,2042.89837 657.84524,2044.87508 C657.981565,2049.57828 659.072162,2050.60072 666.02472,2050.60072 C667.796941,2050.60072 670.659759,2050.60072 672.43198,2049.78277 C674.2042,2048.96482 675.022148,2047.53341 675.499284,2044.73876 C675.635609,2043.98897 675.771934,2043.71632 676.24907,2043.71632 C676.794369,2043.71632 676.794369,2044.26162 676.794369,2044.94324 C676.794369,2046.51098 676.24907,2051.14602 675.908258,2052.50926 C675.431122,2054.28148 674.817661,2054.28148 672.227493,2054.28148 C667.115318,2054.28148 663.366389,2054.14516 660.435409,2054.077 C657.504429,2053.94067 655.391396,2053.87251 653.346526,2053.87251 C652.596741,2053.87251 651.097169,2053.87251 649.461273,2053.94067 C647.89354,2053.94067 646.121319,2054.077 644.758072,2054.077 C643.871962,2054.077 643.394826,2053.87251 643.394826,2053.39537 C643.394826,2053.05456 643.667475,2052.85007 644.485423,2052.85007 C645.507858,2052.85007 646.325806,2052.71375 646.939267,2052.57742 C648.302514,2052.30478 648.643325,2050.8052 648.915975,2048.8285 C649.256786,2045.96568 649.256786,2040.58085 649.256786,2034.30992 Z M703.582165,2050.87337 C704.87725,2054.077 705.286224,2055.03127 706.172334,2055.03127 C707.126607,2055.03127 707.535581,2053.94067 709.307801,2049.98726 C710.807373,2046.57914 714.011002,2039.14945 718.373392,2029.19774 C722.054158,2020.81378 723.894541,2017.13301 726.552872,2010.72575 C728.393255,2006.36336 729.41569,2005.2046 730.3018,2004.59114 C731.528722,2003.77319 732.960131,2003.77319 733.641754,2003.77319 C734.323377,2003.77319 734.732351,2003.63687 734.732351,2003.15973 C734.732351,2002.6826 734.187053,2002.54627 733.300942,2002.54627 C731.256072,2002.54627 728.052443,2002.75076 726.893683,2002.75076 C726.007573,2002.75076 723.144755,2002.54627 719.736638,2002.54627 C718.441554,2002.54627 717.828093,2002.6826 717.828093,2003.2279 C717.828093,2003.70503 718.373392,2003.77319 718.986853,2003.77319 C719.872963,2003.77319 720.895398,2003.84136 721.713346,2004.11401 C722.326807,2004.31849 722.599456,2004.86379 722.599456,2005.40909 C722.599456,2006.02255 722.326807,2007.04499 721.985995,2007.9311 C720.350099,2012.42981 711.488996,2034.37808 708.558016,2041.87594 L708.285366,2041.87594 L696.561445,2010.93024 C695.607173,2008.4764 694.993712,2006.56785 694.993712,2005.68174 C694.993712,2005.06828 695.198199,2004.59114 695.675335,2004.25033 C696.220634,2003.84136 697.243069,2003.77319 698.333666,2003.77319 C698.947127,2003.77319 699.356101,2003.63687 699.356101,2003.15973 C699.356101,2002.6826 698.606315,2002.54627 697.788367,2002.54627 C694.380251,2002.54627 691.108459,2002.75076 689.4044,2002.75076 C687.018719,2002.75076 683.133466,2002.54627 679.520862,2002.54627 C678.498427,2002.54627 677.748641,2002.61443 677.748641,2003.15973 C677.748641,2003.56871 677.953128,2003.77319 678.566589,2003.77319 C679.111888,2003.77319 680.202485,2003.77319 681.22492,2004.04584 C683.678764,2004.72747 684.837524,2005.47725 686.405258,2009.22618 L703.582165,2050.87337 Z M742.025721,2034.30992 C742.025721,2040.58085 742.025721,2045.96568 741.684909,2048.8285 C741.41226,2050.8052 741.071448,2052.30478 739.708202,2052.57742 C739.094741,2052.71375 738.276793,2052.85007 737.254358,2052.85007 C736.43641,2052.85007 736.16376,2053.05456 736.16376,2053.39537 C736.16376,2053.87251 736.640897,2054.077 737.527007,2054.077 C738.890254,2054.077 740.662474,2053.94067 742.230208,2053.94067 C743.866104,2053.87251 745.365675,2053.87251 746.115461,2053.87251 C748.160331,2053.87251 750.273363,2053.94067 753.204344,2054.077 C756.135324,2054.14516 759.884252,2054.28148 764.996427,2054.28148 C767.586596,2054.28148 768.200057,2054.28148 768.677193,2052.50926 C769.018005,2051.14602 769.563303,2046.51098 769.563303,2044.94324 C769.563303,2044.26162 769.563303,2043.71632 769.018005,2043.71632 C768.540868,2043.71632 768.404544,2043.98897 768.268219,2044.73876 C767.791083,2047.53341 766.973135,2048.96482 765.200914,2049.78277 C763.428693,2050.60072 760.565875,2050.60072 758.793655,2050.60072 C751.841097,2050.60072 750.7505,2049.57828 750.614175,2044.87508 C750.546013,2042.89837 750.614175,2036.62744 750.614175,2034.30992 L750.614175,2028.9251 C750.614175,2028.51612 750.682337,2028.24347 751.023149,2028.24347 C752.659045,2028.24347 759.407116,2028.31163 760.7022,2028.44796 C763.224206,2028.72061 764.178479,2029.74304 764.519291,2031.10629 C764.723778,2031.9924 764.723778,2032.87851 764.79194,2033.56013 C764.79194,2033.90095 764.928265,2034.17359 765.405401,2034.17359 C766.018862,2034.17359 766.018862,2033.42381 766.018862,2032.87851 C766.018862,2032.40137 766.223349,2029.67488 766.291511,2028.31163 C766.564161,2024.83536 766.83681,2023.74476 766.83681,2023.33578 C766.83681,2022.92681 766.632323,2022.79049 766.359674,2022.79049 C766.018862,2022.79049 765.746213,2023.1313 765.269076,2023.6766 C764.655615,2024.35822 763.63318,2024.56271 761.997284,2024.69903 C760.429551,2024.83536 752.590883,2024.83536 751.091311,2024.83536 C750.682337,2024.83536 750.614175,2024.56271 750.614175,2024.08557 L750.614175,2006.8405 C750.614175,2006.36336 750.7505,2006.15888 751.091311,2006.15888 C752.454558,2006.15888 759.611603,2006.2952 760.770362,2006.43153 C764.178479,2006.8405 764.860102,2007.65845 765.337239,2008.88537 C765.67805,2009.70332 765.746213,2010.86208 765.746213,2011.33921 C765.746213,2011.95267 765.882537,2012.29349 766.359674,2012.29349 C766.83681,2012.29349 766.973135,2011.88451 767.041297,2011.5437 C767.177622,2010.72575 767.313946,2007.72661 767.382109,2007.04499 C767.586596,2003.90952 767.927407,2003.09157 767.927407,2002.61443 C767.927407,2002.27362 767.859245,2002.00097 767.518433,2002.00097 C767.177622,2002.00097 766.768648,2002.20546 766.427836,2002.27362 C765.882537,2002.40995 764.79194,2002.54627 763.496856,2002.6826 C762.201771,2002.75076 748.637467,2002.75076 746.456273,2002.75076 C745.502,2002.75076 743.934266,2002.6826 742.162046,2002.61443 C740.457987,2002.61443 738.48128,2002.54627 736.640897,2002.54627 C735.618462,2002.54627 735.141325,2002.6826 735.141325,2003.15973 C735.141325,2003.63687 735.550299,2003.77319 736.300085,2003.77319 C737.254358,2003.77319 738.413117,2003.84136 738.958416,2003.97768 C741.207773,2004.45482 741.753072,2005.54542 741.889396,2007.86293 C742.025721,2010.04413 742.025721,2011.95267 742.025721,2022.31335 L742.025721,2034.30992 Z M785.104315,2034.30992 L785.104315,2022.31335 C785.104315,2011.95267 785.104315,2010.04413 784.967991,2007.86293 C784.831666,2005.54542 784.286367,2004.45482 782.03701,2003.97768 C781.491712,2003.84136 780.332952,2003.77319 779.378679,2003.77319 C778.628894,2003.77319 778.21992,2003.63687 778.21992,2003.15973 C778.21992,2002.6826 778.697056,2002.54627 779.719491,2002.54627 C783.332095,2002.54627 787.626322,2002.75076 789.05773,2002.75076 C791.37525,2002.75076 796.555587,2002.54627 798.668619,2002.54627 C802.962846,2002.54627 807.529723,2002.95525 811.210489,2005.47725 C813.119034,2006.77234 815.845527,2010.24862 815.845527,2014.81549 C815.845527,2019.85951 813.732495,2024.49454 806.848099,2030.08386 C812.914547,2037.71804 817.617748,2043.78448 821.639325,2048.01055 C825.456416,2051.96396 828.251072,2052.4411 829.273507,2052.64559 C830.023292,2052.78191 830.636753,2052.85007 831.182052,2052.85007 C831.727351,2052.85007 832,2053.05456 832,2053.39537 C832,2053.94067 831.522864,2054.077 830.704916,2054.077 L824.229494,2054.077 C820.412403,2054.077 818.708345,2053.73618 816.936125,2052.78191 C814.005144,2051.21418 811.414976,2048.01055 807.597885,2042.76205 C804.871392,2039.01312 801.735924,2034.37808 800.849814,2033.35565 C800.509002,2032.94667 800.100028,2032.87851 799.622892,2032.87851 L793.692769,2032.74219 C793.351957,2032.74219 793.14747,2032.87851 793.14747,2033.28748 L793.14747,2034.24176 C793.14747,2040.58085 793.14747,2045.96568 793.488282,2048.8285 C793.692769,2050.8052 794.101743,2052.30478 796.146613,2052.57742 C797.169048,2052.71375 798.668619,2052.85007 799.486567,2052.85007 C800.031866,2052.85007 800.304515,2053.05456 800.304515,2053.39537 C800.304515,2053.87251 799.827379,2054.077 798.941269,2054.077 C794.987853,2054.077 789.943841,2053.87251 788.921406,2053.87251 C787.626322,2053.87251 783.332095,2054.077 780.605601,2054.077 C779.719491,2054.077 779.242355,2053.87251 779.242355,2053.39537 C779.242355,2053.05456 779.515004,2052.85007 780.332952,2052.85007 C781.355387,2052.85007 782.173335,2052.71375 782.786796,2052.57742 C784.150043,2052.30478 784.490854,2050.8052 784.763504,2048.8285 C785.104315,2045.96568 785.104315,2040.58085 785.104315,2034.30992 Z M793.14747,2006.97682 L793.14747,2027.69817 C793.14747,2028.44796 793.283795,2028.72061 793.760931,2028.9251 C795.19234,2029.40223 797.23721,2029.60672 798.941269,2029.60672 C801.667762,2029.60672 802.553872,2029.33407 803.780794,2028.44796 C805.825664,2026.94839 807.802372,2023.81292 807.802372,2018.22361 C807.802372,2008.54456 801.395113,2005.7499 797.373535,2005.7499 C795.669477,2005.7499 794.442555,2005.81806 793.760931,2006.02255 C793.283795,2006.15888 793.14747,2006.43153 793.14747,2006.97682 Z" id="FOREVER"></path>
        </g>
    </g>
</svg>