<?xml version="1.0" encoding="UTF-8"?>
<svg width="193px" height="68px" viewBox="0 0 193 68" version="1.1" xmlns="http://www.w3.org/2000/svg" xmlns:xlink="http://www.w3.org/1999/xlink">
    <!-- Generator: Sketch 45.2 (43514) - http://www.bohemiancoding.com/sketch -->
    <title>Page 1</title>
    <desc>Created with Sketch.</desc>
    <defs>
        <polygon id="path-1" points="193 67.316 193 0.0003 0.0005 0.0003 0.0005 67.316 193 67.316"></polygon>
    </defs>
    <g id="Page-1" stroke="none" stroke-width="1" fill="none" fill-rule="evenodd">
        <g>
            <mask id="mask-2" fill="white">
                <use xlink:href="#path-1"></use>
            </mask>
            <g id="Clip-2"></g>
            <path d="M154.5015,44.159 C155.6595,43.399 156.8315,42.692 157.9325,41.888 C159.0085,41.103 159.9625,40.155 160.4345,38.875 C160.6765,38.219 160.8745,37.472 160.8115,36.792 C160.6145,34.656 158.2555,33.878 156.3855,35.268 C153.8485,37.154 153.4915,41.078 154.5015,44.159 L154.5015,44.159 Z M87.2935,39.772 C87.2935,38.627 87.3075,37.481 87.2825,36.337 C87.2775,36.121 87.1815,35.843 87.0275,35.705 C84.9095,33.824 81.3715,33.911 79.3665,35.909 C77.3025,37.968 76.7665,40.522 77.2375,43.29 C77.8485,46.873 80.9615,48.004 83.8195,46.934 C85.2415,46.402 86.1305,45.19 86.9625,43.983 C87.1505,43.71 87.2675,43.337 87.2795,43.005 C87.3185,41.929 87.2935,40.85 87.2935,39.772 L87.2935,39.772 Z M113.4885,39.716 C113.4885,38.527 113.4985,37.337 113.4795,36.147 C113.4765,35.923 113.4245,35.635 113.2815,35.486 C111.1855,33.31 107.4445,33.234 105.3555,35.4 C103.0065,37.837 102.6525,40.797 103.5905,43.9 C104.3695,46.479 106.5215,47.63 109.1615,47.107 C110.8035,46.782 111.8915,45.651 112.9345,44.455 C113.3365,43.993 113.5365,43.514 113.5035,42.88 C113.4495,41.828 113.4885,40.771 113.4885,39.716 L113.4885,39.716 Z M113.4635,67.316 C113.4535,66.733 113.4365,66.15 113.4355,65.566 C113.4335,59.391 113.4345,53.215 113.4345,47.039 L113.4345,46.101 C113.1615,46.422 113.0135,46.597 112.8645,46.771 C111.6085,48.229 110.2335,49.526 108.3885,50.229 C105.2225,51.436 101.8915,50.174 100.4875,47.087 C99.9785,45.966 99.7835,44.701 99.4475,43.5 C99.4075,43.357 99.3875,43.208 99.3265,42.904 C98.5825,43.754 97.9125,44.493 97.2715,45.257 C95.7505,47.069 94.1755,48.827 92.0695,49.98 C91.4935,50.296 90.8325,50.502 90.1855,50.629 C89.0725,50.849 88.1565,50.353 87.7775,49.284 C87.4595,48.386 87.2955,47.432 87.1025,46.658 C86.6605,47.048 86.1045,47.519 85.5705,48.015 C84.1495,49.336 82.5605,50.352 80.6285,50.73 C77.5255,51.337 74.4575,49.43 73.5645,46.321 C73.3265,45.491 73.1935,44.629 72.9885,43.668 C72.7405,43.975 72.4895,44.22 72.3165,44.511 C70.6885,47.248 68.1985,48.885 65.2945,49.961 C61.9595,51.197 58.7605,50.94 55.8425,48.813 C53.4025,47.034 52.1045,44.506 51.4805,41.615 C50.6455,37.751 51.0905,33.938 52.0985,30.171 C53.6505,24.367 56.4845,19.162 59.6625,14.123 C60.4865,12.815 61.3515,11.534 62.3275,10.043 C59.1135,11.401 56.0875,11.629 53.1565,9.727 C51.8325,11.41 50.5445,13.049 49.2545,14.685 C48.8665,15.179 48.5265,15.728 48.0695,16.149 C46.8475,17.273 46.6165,18.632 46.6275,20.246 C46.6955,29.7 46.6555,39.155 46.6745,48.609 C46.6755,49.159 46.4995,49.444 46.0235,49.69 C44.8325,50.305 43.6705,50.976 42.3635,51.698 L42.3635,50.816 C42.3635,38.106 42.3655,25.395 42.3595,12.685 C42.3585,11.72 42.3435,10.752 42.2625,9.791 C42.2195,9.27 42.1495,8.662 41.5395,8.452 C40.9545,8.251 40.4525,8.567 40.1015,8.976 C39.1275,10.115 38.2225,11.313 37.2585,12.461 C36.6305,13.208 36.5635,13.986 36.7405,14.935 C37.5365,19.206 37.5805,23.505 36.9285,27.799 C36.1365,33.015 34.3835,37.873 31.2625,42.166 C28.5865,45.847 25.2365,48.732 20.7895,50 C15.8805,51.4 11.2295,50.815 7.1475,47.517 C6.3945,46.909 5.8195,46.08 5.0985,45.284 C6.4735,43.986 7.7575,42.772 9.0005,41.599 C9.6195,41.675 9.7255,42.081 9.8325,42.504 C10.3925,44.715 11.5865,46.497 13.6005,47.598 C15.6085,48.696 17.7985,48.839 20.0145,48.401 C24.3125,47.55 27.2795,44.852 29.5565,41.303 C32.3345,36.97 33.5735,32.149 33.8505,27.048 C34.0715,22.971 33.6245,18.981 32.2045,15.138 C30.7215,11.122 28.4515,7.663 24.6685,5.468 C19.9375,2.722 15.1385,2.73 10.4655,5.616 C6.5775,8.017 4.0065,11.472 2.9385,15.94 C2.1095,19.404 2.3365,22.783 4.4175,25.814 C7.4835,30.283 13.7485,30.681 17.5645,26.655 C19.7025,24.398 20.6175,21.716 19.9245,18.623 C19.6295,17.304 18.8895,16.241 17.5965,15.673 C15.9085,14.931 14.5115,15.563 13.9135,17.293 C13.8465,17.485 13.6395,17.712 13.4545,17.762 C13.1125,17.853 12.9095,17.657 12.7935,17.288 C12.2495,15.556 13.2285,13.224 14.9625,12.196 C16.7325,11.145 18.8045,11.419 20.1935,12.859 C21.8125,14.536 22.3525,16.614 22.3055,18.844 C22.2195,22.963 20.6475,26.48 17.6655,29.318 C15.2725,31.595 12.4545,32.961 9.0695,32.843 C4.6065,32.686 1.2635,29.815 0.4035,25.43 C0.2365,24.576 0.1325,23.708 0.0005,22.847 L0.0005,21.904 C0.1715,20.62 0.2255,19.307 0.5345,18.058 C2.5085,10.073 7.1515,4.238 14.8375,1.149 C22.0015,-1.73 29.7575,0.954 33.9405,7.493 C34.3385,8.115 34.7085,8.76 35.0345,9.421 C35.3605,10.082 35.6165,10.778 35.9445,11.558 C36.3415,11.071 36.7035,10.603 37.0905,10.158 C38.3725,8.687 39.5415,7.091 40.9775,5.789 C43.1995,3.777 45.7415,4.663 46.3415,7.615 C46.6475,9.116 46.6565,10.683 46.7435,12.223 C46.7995,13.202 46.7545,14.187 46.7545,15.169 C46.8125,15.201 46.8695,15.234 46.9275,15.266 C48.2845,13.531 49.6595,11.809 50.9945,10.056 C52.3245,8.312 53.6155,6.537 54.9725,4.71 C56.4385,6.481 57.9885,8.024 60.4505,8.149 C62.8455,8.27 64.6435,7.079 66.3345,5.608 C66.6765,5.851 66.9805,6.068 67.1375,6.18 C65.5535,8.371 63.8825,10.434 62.4845,12.667 C58.9035,18.385 56.6595,24.619 55.8455,31.324 C55.4435,34.631 55.3525,37.957 56.3425,41.206 C57.0855,43.639 58.2725,45.804 60.6745,46.932 C63.7725,48.388 66.6925,47.787 69.2825,45.688 C70.8925,44.384 72.2005,42.783 73.1155,40.887 C74.1465,38.751 75.3695,36.738 77.2605,35.24 C80.3075,32.825 83.6525,32.294 87.2955,33.734 C87.5625,33.839 87.9545,33.819 88.2195,33.702 C89.1575,33.284 90.0655,32.8 91.0765,32.295 C91.0905,32.605 91.1105,32.837 91.1105,33.069 C91.1145,36.662 91.1065,40.256 91.1235,43.849 C91.1265,44.678 91.1635,45.513 91.2685,46.335 C91.4175,47.5 92.1475,47.928 93.1015,47.268 C94.1365,46.552 95.0455,45.637 95.9435,44.742 C98.2625,42.433 99.6365,39.471 101.3925,36.772 C102.4855,35.092 103.9145,33.716 105.8245,32.979 C108.2445,32.045 110.6485,32.072 112.9445,33.379 C113.4175,33.648 113.7565,33.667 114.2225,33.39 C115.1785,32.823 116.1755,32.322 117.2525,31.742 L117.2525,40.386 L117.2525,48.849 L117.4165,48.956 C118.7105,47.667 120.0715,46.438 121.2845,45.077 C123.6665,42.407 125.6755,39.458 127.3885,36.317 C127.6605,35.818 127.6705,35.176 127.8105,34.602 C127.8645,34.377 127.8725,34.034 128.0165,33.955 C129.1485,33.333 130.3095,32.762 131.5675,32.12 L131.5675,32.965 C131.5675,36.962 131.5625,40.96 131.5735,44.957 C131.5755,45.674 131.5885,46.4 131.6975,47.106 C131.8655,48.194 132.5195,48.461 133.4095,47.825 C133.8805,47.488 134.3245,47.096 134.7175,46.67 C136.5605,44.68 137.9735,42.393 139.2105,39.993 C139.3155,39.789 139.3295,39.521 139.3305,39.282 C139.3405,37.733 139.3475,36.183 139.3275,34.634 C139.3225,34.249 139.4285,34.037 139.7945,33.871 C140.8715,33.38 141.9275,32.843 143.0695,32.286 C143.0835,32.579 143.1025,32.811 143.1025,33.043 C143.1055,37.422 143.1025,41.801 143.1155,46.18 C143.1175,46.722 142.9735,47.392 143.5915,47.686 C144.2605,48.005 144.8075,47.506 145.1715,47.073 C146.9435,44.964 148.7115,42.847 150.3635,40.645 C151.4355,39.216 152.1845,37.54 153.2935,36.146 C154.9365,34.084 157.0715,32.703 159.8045,32.542 C162.8315,32.363 164.4325,34.489 163.5375,37.392 C162.8785,39.528 161.5065,41.131 159.7705,42.418 C158.2995,43.509 156.7195,44.452 155.1365,45.494 C156.1065,46.798 157.4045,47.699 159.1565,47.759 C162.0595,47.858 164.2865,46.555 166.0015,44.294 C167.8765,41.825 169.5945,39.252 170.9105,36.438 C171.2055,35.808 171.3055,35.089 171.5115,34.417 C171.5575,34.266 171.6375,34.067 171.7595,34.007 C172.8785,33.456 174.0095,32.931 175.2525,32.344 L175.2525,39.059 C175.2975,39.071 175.3425,39.082 175.3885,39.094 C175.9905,38.304 176.5755,37.498 177.2005,36.726 C178.3205,35.343 179.4905,33.987 181.1165,33.19 C181.7985,32.856 182.6045,32.618 183.3555,32.613 C184.9595,32.601 185.9575,33.48 186.2075,35.098 C186.4125,36.423 186.4885,37.773 186.5245,39.115 C186.5885,41.493 186.5695,43.874 186.6085,46.253 C186.6175,46.808 186.6135,47.468 187.2325,47.708 C187.8675,47.954 188.4995,47.688 188.9655,47.237 C189.6095,46.616 190.1745,45.915 190.7855,45.259 C191.2125,44.8 191.6265,44.318 192.1135,43.933 C192.2935,43.791 192.6685,43.898 192.9555,43.892 C192.9565,44.155 193.0645,44.492 192.9415,44.669 C191.5035,46.744 189.9245,48.693 187.7265,50.027 C187.4235,50.211 187.0795,50.34 186.7385,50.444 C184.7195,51.055 183.2345,50.049 183.0145,47.812 C182.8705,46.342 182.8965,44.855 182.8645,43.375 C182.8195,41.199 182.8705,39.017 182.7295,36.848 C182.6215,35.192 181.4605,34.707 180.2025,35.822 C179.0895,36.809 178.2035,38.049 177.2005,39.161 C175.6325,40.899 174.9395,42.881 175.2375,45.245 C175.3825,46.395 175.2715,47.578 175.2535,48.745 C175.2505,48.942 175.1905,49.244 175.0585,49.316 C173.9235,49.934 172.7655,50.511 171.5315,51.141 L171.5315,39.074 C171.4845,39.05 171.4385,39.026 171.3925,39.001 C171.2665,39.182 171.1415,39.364 171.0135,39.544 C169.5415,41.604 168.1625,43.738 166.5715,45.702 C164.9225,47.74 162.9275,49.439 160.3865,50.309 C157.9905,51.129 155.6245,51.137 153.4345,49.662 C151.9335,48.652 151.1985,47.128 150.8145,45.424 C150.6295,44.603 150.5655,43.754 150.4385,42.854 C149.6695,43.811 148.9345,44.756 148.1685,45.675 C147.0375,47.034 145.9305,48.418 144.7255,49.708 C144.0435,50.437 143.1225,50.894 142.0755,50.838 C140.6015,50.759 139.7095,49.84 139.4965,48.15 C139.3765,47.196 139.3715,46.226 139.3405,45.263 C139.3175,44.524 139.3355,43.784 139.3355,42.835 C139.0885,43.183 138.9525,43.39 138.8015,43.585 C137.4735,45.305 136.2185,47.09 134.7815,48.713 C134.0785,49.507 133.1015,50.143 132.1305,50.599 C130.3645,51.428 128.7995,50.699 128.3245,48.804 C127.9905,47.472 127.8925,46.065 127.8275,44.685 C127.7475,42.96 127.8085,41.228 127.8085,39.499 L127.8085,38.652 C127.5605,38.973 127.4265,39.134 127.3065,39.304 C126.2825,40.75 125.3635,42.286 124.2175,43.627 C122.1385,46.059 119.9355,48.386 117.7555,50.729 C117.4095,51.102 117.2405,51.444 117.2415,51.957 C117.2545,57.076 117.2425,62.197 117.2365,67.316 L113.4635,67.316 Z" id="Fill-1" fill="#FF0000" mask="url(#mask-2)"></path>
        </g>
    </g>
</svg>